<?xml version="1.0" encoding="utf-8"?>
<!-- Generator: Adobe Illustrator 14.0.0, SVG Export Plug-In . SVG Version: 6.00 Build 43363)  -->
<!DOCTYPE svg PUBLIC "-//W3C//DTD SVG 1.1//EN" "http://www.w3.org/Graphics/SVG/1.1/DTD/svg11.dtd">
<svg version="1.1" id="Layer_1" xmlns="http://www.w3.org/2000/svg" xmlns:xlink="http://www.w3.org/1999/xlink" x="0px" y="0px"
	 width="612px" height="792px" viewBox="0 0 612 792" enable-background="new 0 0 612 792" xml:space="preserve">
<path d="M293.224,382.645c-0.152-0.736-0.756-0.932-1.433-0.995c-2.185-0.202-2.572,1.43-2.572,2.119
	c0,1.178,0.345,2.153,2.489,2.153c0.396,0,1.488-0.407,1.488-1.068h3.085c-0.125,1.961-3.424,2.431-4.863,2.431
	c-2.981,0-5.534-0.555-5.41-3.489c0.088-2.095,2.068-3.565,6.009-3.474c2.196,0.052,4.307,0.735,4.315,2.323H293.224z"/>
<path d="M324.122,382.645c-0.151-0.736-0.756-0.932-1.432-0.995c-2.185-0.202-2.572,1.43-2.572,2.119
	c0,1.178,0.344,2.153,2.49,2.153c0.396,0,1.487-0.407,1.487-1.068h3.085c-0.125,1.961-3.423,2.431-4.863,2.431
	c-2.981,0-5.533-0.555-5.41-3.489c0.088-2.095,2.069-3.565,6.01-3.474c2.196,0.052,4.306,0.735,4.315,2.323H324.122z"/>
<path d="M296.884,380.463h4.005l3.417,4.787h0.027v-4.787h2.567v6.647h-3.837l-3.585-4.788h-0.027v4.788h-2.567V380.463z"/>
<path d="M307.692,380.463h4.864c2.338,0,3.713,0.652,3.713,1.638c0,0.582-0.576,1.301-1.859,1.513v0.019
	c1.545,0.092,2.115,1.068,2.115,1.653c0,1.172-1.34,1.824-3.955,1.824h-4.878V380.463z M310.508,383.046h0.807
	c1.242,0,1.901-0.097,1.901-0.612c0-0.553-0.549-0.736-1.667-0.736h-1.042V383.046z M310.508,385.717h0.807
	c1.497,0,2.046-0.157,2.046-0.672c0-0.553-0.693-0.737-1.811-0.737h-1.042V385.717z"/>
<path fill="none" d="M321.969,379.729c3.165,0,4.923-2.735,4.728-5.313c-0.313-3.36-3.399-4.649-5.079-4.376
	c1.406-0.781,3.282-4.454,0.43-7.345c-2.266-2.149-5.157-1.368-6.173-0.43c0.547-1.797-0.352-5.509-4.024-6.095
	c-3.32-0.391-4.766,1.915-5.196,3.008c-0.625-1.563-2.148-3.243-5.001-3.008c-3.633,0.391-4.766,3.868-4.219,5.939
	c-1.446-0.977-3.907-1.407-6.056,0.43c-2.774,2.773-1.29,6.524,0.235,7.423c-1.681-0.156-4.337,0.977-4.923,3.946
	c-0.625,3.672,2.188,5.821,4.923,5.821H321.969z"/>
<path fill="#F47920" d="M298.527,364.882l5.587,12.776l-11.525-7.892c-2.892-1.914-2.306-5.196-0.703-6.642
	C294.151,361.209,297.355,361.874,298.527,364.882z"/>
<path fill="#CE1141" d="M306.185,361.874l-2.031,14.299l-5.782-13.596c-1.25-3.399,1.563-5.626,3.438-5.665
	C303.958,356.678,306.653,358.318,306.185,361.874z"/>
<path fill="#5C3896" d="M314.976,362.538l-5.743,13.635l-1.836-12.307c-0.157-1.875,1.016-1.914,1.446-2.266
	c-0.078-0.274-0.664-0.274-0.664-0.274h-1.094c-0.117-3.204,2.383-4.61,4.415-4.454C313.687,356.951,316.147,359.49,314.976,362.538
	z"/>
<path fill="#007EBB" d="M320.836,369.688l-11.525,7.932l5.43-12.62c1.641-3.985,5.47-3.204,6.837-1.68
	C323.063,364.804,323.493,367.813,320.836,369.688z"/>
<path fill="#2FB457" d="M322.047,379.025h-13.323l10.822-7.541c2.657-1.758,5.47-0.156,6.212,2.149
	C326.54,376.212,324.782,379.025,322.047,379.025z"/>
<path fill="#FDB927" d="M287.549,373.478c1.016-2.657,3.829-3.595,6.329-1.993l10.822,7.541h-13.127
	C288.838,379.025,286.689,376.524,287.549,373.478z"/>
</svg>
